solid OpenSCAD_Model
  facet normal 0.996195 0 -0.0871557
    outer loop
      vertex 13.2014 8 39.4694
      vertex 11.3712 10 18.5493
      vertex 13.2014 10 39.4694
    endloop
  endfacet
  facet normal 0.996195 0 -0.0871557
    outer loop
      vertex 11.3712 10 18.5493
      vertex 13.2014 8 39.4694
      vertex 11.3712 8 18.5493
    endloop
  endfacet
  facet normal 0.0871405 0 0.996196
    outer loop
      vertex 12.991 10 39.4878
      vertex 13.2014 8 39.4694
      vertex 13.2014 10 39.4694
    endloop
  endfacet
  facet normal 0.0871405 0 0.996196
    outer loop
      vertex 13.2014 8 39.4694
      vertex 12.991 10 39.4878
      vertex 12.991 8 39.4878
    endloop
  endfacet
  facet normal 0 -1 -0
    outer loop
      vertex 11.7503 8 34.3566
      vertex 10.375 8 18.6364
      vertex 12.5361 8 34.2879
    endloop
  endfacet
  facet normal 0 -1 0
    outer loop
      vertex 12.5361 8 34.2879
      vertex 13.2014 8 39.4694
      vertex 12.991 8 39.4878
    endloop
  endfacet
  facet normal 0 -1 -0
    outer loop
      vertex 12.5361 8 34.2879
      vertex 11.3712 8 18.5493
      vertex 13.2014 8 39.4694
    endloop
  endfacet
  facet normal 0 -1 0
    outer loop
      vertex 11.3712 8 18.5493
      vertex 12.5361 8 34.2879
      vertex 10.375 8 18.6364
    endloop
  endfacet
  facet normal 0 1 -0
    outer loop
      vertex 12.991 10 39.4878
      vertex 12.0193 10 39.8541
      vertex 13.0154 10 39.767
    endloop
  endfacet
  facet normal 0 1 0
    outer loop
      vertex 12.991 10 39.4878
      vertex 11.5399 10 34.375
      vertex 12.0193 10 39.8541
    endloop
  endfacet
  facet normal 0 1 0
    outer loop
      vertex 11.7503 10 34.3566
      vertex 12.991 10 39.4878
      vertex 13.2014 10 39.4694
    endloop
  endfacet
  facet normal 0 1 0
    outer loop
      vertex 12.991 10 39.4878
      vertex 11.7503 10 34.3566
      vertex 11.5399 10 34.375
    endloop
  endfacet
  facet normal 0 1 0
    outer loop
      vertex 11.3712 10 18.5493
      vertex 11.7503 10 34.3566
      vertex 13.2014 10 39.4694
    endloop
  endfacet
  facet normal 0 1 0
    outer loop
      vertex 11.7503 10 34.3566
      vertex 11.3712 10 18.5493
      vertex 10.375 10 18.6364
    endloop
  endfacet
  facet normal -0.996195 0 0.0871557
    outer loop
      vertex 10.375 8 18.6364
      vertex 11.7503 10 34.3566
      vertex 10.375 10 18.6364
    endloop
  endfacet
  facet normal -0.996195 0 0.0871557
    outer loop
      vertex 11.7503 10 34.3566
      vertex 10.375 8 18.6364
      vertex 11.7503 8 34.3566
    endloop
  endfacet
  facet normal -0.0871545 0 -0.996195
    outer loop
      vertex 10.375 8 18.6364
      vertex 11.3712 10 18.5493
      vertex 11.3712 8 18.5493
    endloop
  endfacet
  facet normal -0.0871545 0 -0.996195
    outer loop
      vertex 11.3712 10 18.5493
      vertex 10.375 8 18.6364
      vertex 10.375 10 18.6364
    endloop
  endfacet
  facet normal -0.996195 0 0.0871557
    outer loop
      vertex 10.2108 -10 19.1831
      vertex 11.5399 -8 34.375
      vertex 10.2108 -8 19.1831
    endloop
  endfacet
  facet normal -0.996195 0 0.0871557
    outer loop
      vertex 11.5399 -8 34.375
      vertex 10.2108 -10 19.1831
      vertex 11.5399 -10 34.375
    endloop
  endfacet
  facet normal -0.0871564 0 -0.996195
    outer loop
      vertex 10.2108 -10 19.1831
      vertex 11.207 -8 19.0959
      vertex 11.207 -10 19.0959
    endloop
  endfacet
  facet normal -0.0871564 0 -0.996195
    outer loop
      vertex 11.207 -8 19.0959
      vertex 10.2108 -10 19.1831
      vertex 10.2108 -8 19.1831
    endloop
  endfacet
  facet normal 0 1 0
    outer loop
      vertex 12.5361 -8 34.2879
      vertex 11.207 -8 19.0959
      vertex 10.2108 -8 19.1831
    endloop
  endfacet
  facet normal 0 1 0
    outer loop
      vertex 11.207 -8 19.0959
      vertex 12.5361 -8 34.2879
      vertex 12.9501 -8 39.0198
    endloop
  endfacet
  facet normal 0 1 0
    outer loop
      vertex 11.5399 -8 34.375
      vertex 12.5361 -8 34.2879
      vertex 10.2108 -8 19.1831
    endloop
  endfacet
  facet normal 0.996195 0 -0.0871558
    outer loop
      vertex 12.9501 -10 39.0198
      vertex 11.207 -8 19.0959
      vertex 12.9501 -8 39.0198
    endloop
  endfacet
  facet normal 0.996195 0 -0.0871558
    outer loop
      vertex 11.207 -8 19.0959
      vertex 12.9501 -10 39.0198
      vertex 11.207 -10 19.0959
    endloop
  endfacet
  facet normal 0 -1 0
    outer loop
      vertex 12.0193 -10 39.8541
      vertex 12.9501 -10 39.0198
      vertex 13.0154 -10 39.767
    endloop
  endfacet
  facet normal 0 -1 0
    outer loop
      vertex 11.5399 -10 34.375
      vertex 12.9501 -10 39.0198
      vertex 12.0193 -10 39.8541
    endloop
  endfacet
  facet normal 0 -1 0
    outer loop
      vertex 11.207 -10 19.0959
      vertex 11.5399 -10 34.375
      vertex 10.2108 -10 19.1831
    endloop
  endfacet
  facet normal 0 -1 -0
    outer loop
      vertex 11.5399 -10 34.375
      vertex 11.207 -10 19.0959
      vertex 12.9501 -10 39.0198
    endloop
  endfacet
  facet normal 0.996195 0 -0.0871566
    outer loop
      vertex 13.0154 10 39.767
      vertex 12.991 8 39.4878
      vertex 12.991 10 39.4878
    endloop
  endfacet
  facet normal 0.996195 2.80414e-009 -0.0871558
    outer loop
      vertex 12.991 8 39.4878
      vertex 12.9501 -8 39.0198
      vertex 12.5361 8 34.2879
    endloop
  endfacet
  facet normal 0.996195 0 -0.0871566
    outer loop
      vertex 13.0154 -10 39.767
      vertex 12.991 8 39.4878
      vertex 13.0154 10 39.767
    endloop
  endfacet
  facet normal 0.996195 1.00268e-008 -0.087156
    outer loop
      vertex 12.991 8 39.4878
      vertex 13.0154 -10 39.767
      vertex 12.9501 -8 39.0198
    endloop
  endfacet
  facet normal 0.996195 0 -0.087156
    outer loop
      vertex 12.9501 -8 39.0198
      vertex 13.0154 -10 39.767
      vertex 12.9501 -10 39.0198
    endloop
  endfacet
  facet normal 0.996195 0 -0.0871558
    outer loop
      vertex 12.5361 8 34.2879
      vertex 12.9501 -8 39.0198
      vertex 12.5361 -8 34.2879
    endloop
  endfacet
  facet normal 0.0871582 0 0.996194
    outer loop
      vertex 12.0193 10 39.8541
      vertex 13.0154 -10 39.767
      vertex 13.0154 10 39.767
    endloop
  endfacet
  facet normal 0.0871582 0 0.996194
    outer loop
      vertex 13.0154 -10 39.767
      vertex 12.0193 10 39.8541
      vertex 12.0193 -10 39.8541
    endloop
  endfacet
  facet normal -0.0871533 0 -0.996195
    outer loop
      vertex 12.5361 -8 34.2879
      vertex 11.7503 8 34.3566
      vertex 12.5361 8 34.2879
    endloop
  endfacet
  facet normal -0.0871544 -5.29333e-008 -0.996195
    outer loop
      vertex 11.5399 -8 34.375
      vertex 11.7503 8 34.3566
      vertex 12.5361 -8 34.2879
    endloop
  endfacet
  facet normal -0.0871584 -0 -0.996194
    outer loop
      vertex 11.5399 10 34.375
      vertex 11.7503 8 34.3566
      vertex 11.5399 -8 34.375
    endloop
  endfacet
  facet normal -0.0871584 0 -0.996194
    outer loop
      vertex 11.7503 8 34.3566
      vertex 11.5399 10 34.375
      vertex 11.7503 10 34.3566
    endloop
  endfacet
  facet normal 0 0 0
    outer loop
      vertex 11.5399 -8 34.375
      vertex 11.5399 -10 34.375
      vertex 11.5399 10 34.375
    endloop
  endfacet
  facet normal -0.996195 0 0.0871557
    outer loop
      vertex 11.5399 -10 34.375
      vertex 12.0193 10 39.8541
      vertex 11.5399 10 34.375
    endloop
  endfacet
  facet normal -0.996195 0 0.0871557
    outer loop
      vertex 12.0193 10 39.8541
      vertex 11.5399 -10 34.375
      vertex 12.0193 -10 39.8541
    endloop
  endfacet
  facet normal 0.809017 0.587785 0
    outer loop
      vertex -7.7 8.8 18
      vertex -8.39098 9.75106 0
      vertex -8.39098 9.75106 18
    endloop
  endfacet
  facet normal 0.809017 0.587785 0
    outer loop
      vertex -8.39098 9.75106 0
      vertex -7.7 8.8 18
      vertex -7.7 8.8 0
    endloop
  endfacet
  facet normal -1 0 0
    outer loop
      vertex -9.50902 8.21221 0
      vertex -9.50902 9.38778 18
      vertex -9.50902 9.38778 0
    endloop
  endfacet
  facet normal -1 -0 0
    outer loop
      vertex -9.50902 9.38778 18
      vertex -9.50902 8.21221 0
      vertex -9.50902 8.21221 18
    endloop
  endfacet
  facet normal -0.309017 0.951057 0
    outer loop
      vertex -8.39098 9.75106 0
      vertex -9.50902 9.38778 18
      vertex -8.39098 9.75106 18
    endloop
  endfacet
  facet normal -0.309017 0.951057 0
    outer loop
      vertex -9.50902 9.38778 18
      vertex -8.39098 9.75106 0
      vertex -9.50902 9.38778 0
    endloop
  endfacet
  facet normal 0 0 1
    outer loop
      vertex -8.39098 9.75106 18
      vertex -8.39098 7.84894 18
      vertex -7.7 8.8 18
    endloop
  endfacet
  facet normal -0 0 1
    outer loop
      vertex -9.50902 9.38778 18
      vertex -8.39098 7.84894 18
      vertex -8.39098 9.75106 18
    endloop
  endfacet
  facet normal 0 0 1
    outer loop
      vertex -8.39098 7.84894 18
      vertex -9.50902 9.38778 18
      vertex -9.50902 8.21221 18
    endloop
  endfacet
  facet normal -0.309017 -0.951056 0
    outer loop
      vertex -9.50902 8.21221 0
      vertex -8.39098 7.84894 18
      vertex -9.50902 8.21221 18
    endloop
  endfacet
  facet normal -0.309017 -0.951056 -0
    outer loop
      vertex -8.39098 7.84894 18
      vertex -9.50902 8.21221 0
      vertex -8.39098 7.84894 0
    endloop
  endfacet
  facet normal 0 0 -1
    outer loop
      vertex -8.39098 7.84894 0
      vertex -8.39098 9.75106 0
      vertex -7.7 8.8 0
    endloop
  endfacet
  facet normal 0 0 -1
    outer loop
      vertex -9.50902 8.21221 0
      vertex -8.39098 9.75106 0
      vertex -8.39098 7.84894 0
    endloop
  endfacet
  facet normal 0 0 -1
    outer loop
      vertex -8.39098 9.75106 0
      vertex -9.50902 8.21221 0
      vertex -9.50902 9.38778 0
    endloop
  endfacet
  facet normal 0.809017 -0.587785 0
    outer loop
      vertex -8.39098 7.84894 18
      vertex -7.7 8.8 0
      vertex -7.7 8.8 18
    endloop
  endfacet
  facet normal 0.809017 -0.587785 0
    outer loop
      vertex -7.7 8.8 0
      vertex -8.39098 7.84894 18
      vertex -8.39098 7.84894 0
    endloop
  endfacet
  facet normal 0.809017 0.587785 0
    outer loop
      vertex 9.6 8.8 18
      vertex 8.90902 9.75106 0
      vertex 8.90902 9.75106 18
    endloop
  endfacet
  facet normal 0.809017 0.587785 0
    outer loop
      vertex 8.90902 9.75106 0
      vertex 9.6 8.8 18
      vertex 9.6 8.8 0
    endloop
  endfacet
  facet normal -1 0 0
    outer loop
      vertex 7.79098 8.21221 0
      vertex 7.79098 9.38778 18
      vertex 7.79098 9.38778 0
    endloop
  endfacet
  facet normal -1 -0 0
    outer loop
      vertex 7.79098 9.38778 18
      vertex 7.79098 8.21221 0
      vertex 7.79098 8.21221 18
    endloop
  endfacet
  facet normal -0.309017 0.951057 0
    outer loop
      vertex 8.90902 9.75106 0
      vertex 7.79098 9.38778 18
      vertex 8.90902 9.75106 18
    endloop
  endfacet
  facet normal -0.309017 0.951057 0
    outer loop
      vertex 7.79098 9.38778 18
      vertex 8.90902 9.75106 0
      vertex 7.79098 9.38778 0
    endloop
  endfacet
  facet normal -0.309017 -0.951056 0
    outer loop
      vertex 7.79098 8.21221 0
      vertex 8.90902 7.84894 18
      vertex 7.79098 8.21221 18
    endloop
  endfacet
  facet normal -0.309017 -0.951056 -0
    outer loop
      vertex 8.90902 7.84894 18
      vertex 7.79098 8.21221 0
      vertex 8.90902 7.84894 0
    endloop
  endfacet
  facet normal 0 0 -1
    outer loop
      vertex 8.90902 7.84894 0
      vertex 8.90902 9.75106 0
      vertex 9.6 8.8 0
    endloop
  endfacet
  facet normal 0 0 -1
    outer loop
      vertex 7.79098 8.21221 0
      vertex 8.90902 9.75106 0
      vertex 8.90902 7.84894 0
    endloop
  endfacet
  facet normal 0 0 -1
    outer loop
      vertex 8.90902 9.75106 0
      vertex 7.79098 8.21221 0
      vertex 7.79098 9.38778 0
    endloop
  endfacet
  facet normal 0 0 1
    outer loop
      vertex 8.90902 9.75106 18
      vertex 8.90902 7.84894 18
      vertex 9.6 8.8 18
    endloop
  endfacet
  facet normal -0 0 1
    outer loop
      vertex 7.79098 9.38778 18
      vertex 8.90902 7.84894 18
      vertex 8.90902 9.75106 18
    endloop
  endfacet
  facet normal 0 0 1
    outer loop
      vertex 8.90902 7.84894 18
      vertex 7.79098 9.38778 18
      vertex 7.79098 8.21221 18
    endloop
  endfacet
  facet normal 0.809017 -0.587785 0
    outer loop
      vertex 8.90902 7.84894 18
      vertex 9.6 8.8 0
      vertex 9.6 8.8 18
    endloop
  endfacet
  facet normal 0.809017 -0.587785 0
    outer loop
      vertex 9.6 8.8 0
      vertex 8.90902 7.84894 18
      vertex 8.90902 7.84894 0
    endloop
  endfacet
  facet normal 0.809017 0.587785 0
    outer loop
      vertex 9.6 -8.8 18
      vertex 8.90902 -7.84894 0
      vertex 8.90902 -7.84894 18
    endloop
  endfacet
  facet normal 0.809017 0.587785 0
    outer loop
      vertex 8.90902 -7.84894 0
      vertex 9.6 -8.8 18
      vertex 9.6 -8.8 0
    endloop
  endfacet
  facet normal -1 0 0
    outer loop
      vertex 7.79098 -9.38778 0
      vertex 7.79098 -8.21221 18
      vertex 7.79098 -8.21221 0
    endloop
  endfacet
  facet normal -1 -0 0
    outer loop
      vertex 7.79098 -8.21221 18
      vertex 7.79098 -9.38778 0
      vertex 7.79098 -9.38778 18
    endloop
  endfacet
  facet normal -0.309017 0.951056 0
    outer loop
      vertex 8.90902 -7.84894 0
      vertex 7.79098 -8.21221 18
      vertex 8.90902 -7.84894 18
    endloop
  endfacet
  facet normal -0.309017 0.951056 0
    outer loop
      vertex 7.79098 -8.21221 18
      vertex 8.90902 -7.84894 0
      vertex 7.79098 -8.21221 0
    endloop
  endfacet
  facet normal 0 0 1
    outer loop
      vertex 8.90902 -7.84894 18
      vertex 8.90902 -9.75106 18
      vertex 9.6 -8.8 18
    endloop
  endfacet
  facet normal -0 0 1
    outer loop
      vertex 7.79098 -8.21221 18
      vertex 8.90902 -9.75106 18
      vertex 8.90902 -7.84894 18
    endloop
  endfacet
  facet normal 0 0 1
    outer loop
      vertex 8.90902 -9.75106 18
      vertex 7.79098 -8.21221 18
      vertex 7.79098 -9.38778 18
    endloop
  endfacet
  facet normal -0.309017 -0.951057 0
    outer loop
      vertex 7.79098 -9.38778 0
      vertex 8.90902 -9.75106 18
      vertex 7.79098 -9.38778 18
    endloop
  endfacet
  facet normal -0.309017 -0.951057 -0
    outer loop
      vertex 8.90902 -9.75106 18
      vertex 7.79098 -9.38778 0
      vertex 8.90902 -9.75106 0
    endloop
  endfacet
  facet normal 0 0 -1
    outer loop
      vertex 8.90902 -9.75106 0
      vertex 8.90902 -7.84894 0
      vertex 9.6 -8.8 0
    endloop
  endfacet
  facet normal 0 0 -1
    outer loop
      vertex 7.79098 -9.38778 0
      vertex 8.90902 -7.84894 0
      vertex 8.90902 -9.75106 0
    endloop
  endfacet
  facet normal 0 0 -1
    outer loop
      vertex 8.90902 -7.84894 0
      vertex 7.79098 -9.38778 0
      vertex 7.79098 -8.21221 0
    endloop
  endfacet
  facet normal 0.809017 -0.587785 0
    outer loop
      vertex 8.90902 -9.75106 18
      vertex 9.6 -8.8 0
      vertex 9.6 -8.8 18
    endloop
  endfacet
  facet normal 0.809017 -0.587785 0
    outer loop
      vertex 9.6 -8.8 0
      vertex 8.90902 -9.75106 18
      vertex 8.90902 -9.75106 0
    endloop
  endfacet
  facet normal 0.809017 0.587785 0
    outer loop
      vertex -7.7 -8.8 18
      vertex -8.39098 -7.84894 0
      vertex -8.39098 -7.84894 18
    endloop
  endfacet
  facet normal 0.809017 0.587785 0
    outer loop
      vertex -8.39098 -7.84894 0
      vertex -7.7 -8.8 18
      vertex -7.7 -8.8 0
    endloop
  endfacet
  facet normal -1 0 0
    outer loop
      vertex -9.50902 -9.38778 0
      vertex -9.50902 -8.21221 18
      vertex -9.50902 -8.21221 0
    endloop
  endfacet
  facet normal -1 -0 0
    outer loop
      vertex -9.50902 -8.21221 18
      vertex -9.50902 -9.38778 0
      vertex -9.50902 -9.38778 18
    endloop
  endfacet
  facet normal -0.309017 0.951056 0
    outer loop
      vertex -8.39098 -7.84894 0
      vertex -9.50902 -8.21221 18
      vertex -8.39098 -7.84894 18
    endloop
  endfacet
  facet normal -0.309017 0.951056 0
    outer loop
      vertex -9.50902 -8.21221 18
      vertex -8.39098 -7.84894 0
      vertex -9.50902 -8.21221 0
    endloop
  endfacet
  facet normal 0 0 1
    outer loop
      vertex -8.39098 -7.84894 18
      vertex -8.39098 -9.75106 18
      vertex -7.7 -8.8 18
    endloop
  endfacet
  facet normal -0 0 1
    outer loop
      vertex -9.50902 -8.21221 18
      vertex -8.39098 -9.75106 18
      vertex -8.39098 -7.84894 18
    endloop
  endfacet
  facet normal 0 0 1
    outer loop
      vertex -8.39098 -9.75106 18
      vertex -9.50902 -8.21221 18
      vertex -9.50902 -9.38778 18
    endloop
  endfacet
  facet normal -0.309017 -0.951057 0
    outer loop
      vertex -9.50902 -9.38778 0
      vertex -8.39098 -9.75106 18
      vertex -9.50902 -9.38778 18
    endloop
  endfacet
  facet normal -0.309017 -0.951057 -0
    outer loop
      vertex -8.39098 -9.75106 18
      vertex -9.50902 -9.38778 0
      vertex -8.39098 -9.75106 0
    endloop
  endfacet
  facet normal 0 0 -1
    outer loop
      vertex -8.39098 -9.75106 0
      vertex -8.39098 -7.84894 0
      vertex -7.7 -8.8 0
    endloop
  endfacet
  facet normal 0 0 -1
    outer loop
      vertex -9.50902 -9.38778 0
      vertex -8.39098 -7.84894 0
      vertex -8.39098 -9.75106 0
    endloop
  endfacet
  facet normal 0 0 -1
    outer loop
      vertex -8.39098 -7.84894 0
      vertex -9.50902 -9.38778 0
      vertex -9.50902 -8.21221 0
    endloop
  endfacet
  facet normal 0.809017 -0.587785 0
    outer loop
      vertex -8.39098 -9.75106 18
      vertex -7.7 -8.8 0
      vertex -7.7 -8.8 18
    endloop
  endfacet
  facet normal 0.809017 -0.587785 0
    outer loop
      vertex -7.7 -8.8 0
      vertex -8.39098 -9.75106 18
      vertex -8.39098 -9.75106 0
    endloop
  endfacet
endsolid OpenSCAD_Model
