solid OpenSCAD_Model
  facet normal -1 0 0
    outer loop
      vertex 0 0 0
      vertex 0 10 10
      vertex 0 10 0
    endloop
  endfacet
  facet normal -1 -0 0
    outer loop
      vertex 0 10 10
      vertex 0 0 0
      vertex 0 0 10
    endloop
  endfacet
  facet normal 0 0 -1
    outer loop
      vertex 20 1 10
      vertex 1 1 10
      vertex 20 10 10
    endloop
  endfacet
  facet normal 0 0 -1
    outer loop
      vertex 22 -1 10
      vertex 21 0 10
      vertex 22 11 10
    endloop
  endfacet
  facet normal 0 0 -1
    outer loop
      vertex 22 -1 10
      vertex 0 0 10
      vertex 21 0 10
    endloop
  endfacet
  facet normal -0 0 -1
    outer loop
      vertex 0 0 10
      vertex -1 -1 10
      vertex 0 10 10
    endloop
  endfacet
  facet normal 0 0 -1
    outer loop
      vertex -1 -1 10
      vertex 0 0 10
      vertex 22 -1 10
    endloop
  endfacet
  facet normal 0 0 -1
    outer loop
      vertex 21 10 10
      vertex 22 11 10
      vertex 21 0 10
    endloop
  endfacet
  facet normal 0 0 -1
    outer loop
      vertex 20 10 10
      vertex 22 11 10
      vertex 21 10 10
    endloop
  endfacet
  facet normal 0 0 -1
    outer loop
      vertex 1 10 10
      vertex 20 10 10
      vertex 1 1 10
    endloop
  endfacet
  facet normal 0 0 -1
    outer loop
      vertex 20 10 10
      vertex 1 10 10
      vertex 22 11 10
    endloop
  endfacet
  facet normal 0 0 -1
    outer loop
      vertex -1 11 10
      vertex 1 10 10
      vertex 0 10 10
    endloop
  endfacet
  facet normal 0 0 -1
    outer loop
      vertex 1 10 10
      vertex -1 11 10
      vertex 22 11 10
    endloop
  endfacet
  facet normal 0 0 -1
    outer loop
      vertex -1 11 10
      vertex 0 10 10
      vertex -1 -1 10
    endloop
  endfacet
  facet normal -1 0 0
    outer loop
      vertex 20 1 0
      vertex 20 10 10
      vertex 20 10 0
    endloop
  endfacet
  facet normal -1 -0 0
    outer loop
      vertex 20 10 10
      vertex 20 1 0
      vertex 20 1 10
    endloop
  endfacet
  facet normal 0 0 -1
    outer loop
      vertex 21 0 0
      vertex 20 1 0
      vertex 21 10 0
    endloop
  endfacet
  facet normal 0 0 -1
    outer loop
      vertex 21 0 0
      vertex 1 1 0
      vertex 20 1 0
    endloop
  endfacet
  facet normal 0 0 -1
    outer loop
      vertex 0 0 0
      vertex 1 1 0
      vertex 21 0 0
    endloop
  endfacet
  facet normal 0 0 -1
    outer loop
      vertex 0 10 0
      vertex 1 1 0
      vertex 0 0 0
    endloop
  endfacet
  facet normal 0 0 -1
    outer loop
      vertex 1 1 0
      vertex 0 10 0
      vertex 1 10 0
    endloop
  endfacet
  facet normal -0 0 -1
    outer loop
      vertex 21 10 0
      vertex 20 1 0
      vertex 20 10 0
    endloop
  endfacet
  facet normal 0 -1 0
    outer loop
      vertex 0 0 0
      vertex 21 0 10
      vertex 0 0 10
    endloop
  endfacet
  facet normal 0 -1 -0
    outer loop
      vertex 21 0 10
      vertex 0 0 0
      vertex 21 0 0
    endloop
  endfacet
  facet normal 0 1 -0
    outer loop
      vertex 20 1 0
      vertex 1 1 10
      vertex 20 1 10
    endloop
  endfacet
  facet normal 0 1 0
    outer loop
      vertex 1 1 10
      vertex 20 1 0
      vertex 1 1 0
    endloop
  endfacet
  facet normal 1 -0 0
    outer loop
      vertex 1 1 10
      vertex 1 10 0
      vertex 1 10 10
    endloop
  endfacet
  facet normal 1 0 0
    outer loop
      vertex 1 10 0
      vertex 1 1 10
      vertex 1 1 0
    endloop
  endfacet
  facet normal 0 1 -0
    outer loop
      vertex 1 10 0
      vertex 0 10 10
      vertex 1 10 10
    endloop
  endfacet
  facet normal 0 1 0
    outer loop
      vertex 0 10 10
      vertex 1 10 0
      vertex 0 10 0
    endloop
  endfacet
  facet normal 1 -0 0
    outer loop
      vertex 21 0 10
      vertex 21 10 0
      vertex 21 10 10
    endloop
  endfacet
  facet normal 1 0 0
    outer loop
      vertex 21 10 0
      vertex 21 0 10
      vertex 21 0 0
    endloop
  endfacet
  facet normal 0 1 -0
    outer loop
      vertex 21 10 0
      vertex 20 10 10
      vertex 21 10 10
    endloop
  endfacet
  facet normal 0 1 0
    outer loop
      vertex 20 10 10
      vertex 21 10 0
      vertex 20 10 0
    endloop
  endfacet
  facet normal -1 0 0
    outer loop
      vertex -1 -1 10
      vertex -1 11 11
      vertex -1 11 10
    endloop
  endfacet
  facet normal -1 -0 0
    outer loop
      vertex -1 11 11
      vertex -1 -1 10
      vertex -1 -1 11
    endloop
  endfacet
  facet normal -0 0 1
    outer loop
      vertex -1 11 11
      vertex 22 -1 11
      vertex 22 11 11
    endloop
  endfacet
  facet normal 0 0 1
    outer loop
      vertex 22 -1 11
      vertex -1 11 11
      vertex -1 -1 11
    endloop
  endfacet
  facet normal 1 -0 0
    outer loop
      vertex 22 -1 11
      vertex 22 11 10
      vertex 22 11 11
    endloop
  endfacet
  facet normal 1 0 0
    outer loop
      vertex 22 11 10
      vertex 22 -1 11
      vertex 22 -1 10
    endloop
  endfacet
  facet normal 0 1 -0
    outer loop
      vertex 22 11 10
      vertex -1 11 11
      vertex 22 11 11
    endloop
  endfacet
  facet normal 0 1 0
    outer loop
      vertex -1 11 11
      vertex 22 11 10
      vertex -1 11 10
    endloop
  endfacet
  facet normal 0 -1 0
    outer loop
      vertex -1 -1 10
      vertex 22 -1 11
      vertex -1 -1 11
    endloop
  endfacet
  facet normal 0 -1 -0
    outer loop
      vertex 22 -1 11
      vertex -1 -1 10
      vertex 22 -1 10
    endloop
  endfacet
endsolid OpenSCAD_Model
