solid OpenSCAD_Model
  facet normal -1 0 0
    outer loop
      vertex 12 18.5 0
      vertex 12 20 2
      vertex 12 20 0
    endloop
  endfacet
  facet normal -1 -0 0
    outer loop
      vertex 12 20 2
      vertex 12 18.5 0
      vertex 12 18.5 2
    endloop
  endfacet
  facet normal -1 0 0
    outer loop
      vertex 12 0 2.5
      vertex 12 20 16
      vertex 12 20 2.5
    endloop
  endfacet
  facet normal -1 -0 0
    outer loop
      vertex 12 20 16
      vertex 12 0 2.5
      vertex 12 0 16
    endloop
  endfacet
  facet normal 0 0 -1
    outer loop
      vertex 40 1 20
      vertex 1 1 20
      vertex 40 20 20
    endloop
  endfacet
  facet normal 0 0 -1
    outer loop
      vertex 42 -1 20
      vertex 41 0 20
      vertex 42 21 20
    endloop
  endfacet
  facet normal 0 0 -1
    outer loop
      vertex 42 -1 20
      vertex 0 0 20
      vertex 41 0 20
    endloop
  endfacet
  facet normal -0 0 -1
    outer loop
      vertex 0 0 20
      vertex -1 -1 20
      vertex 0 20 20
    endloop
  endfacet
  facet normal 0 0 -1
    outer loop
      vertex -1 -1 20
      vertex 0 0 20
      vertex 42 -1 20
    endloop
  endfacet
  facet normal 0 0 -1
    outer loop
      vertex 41 20 20
      vertex 42 21 20
      vertex 41 0 20
    endloop
  endfacet
  facet normal 0 0 -1
    outer loop
      vertex 40 20 20
      vertex 42 21 20
      vertex 41 20 20
    endloop
  endfacet
  facet normal 0 0 -1
    outer loop
      vertex 1 20 20
      vertex 40 20 20
      vertex 1 1 20
    endloop
  endfacet
  facet normal 0 0 -1
    outer loop
      vertex 40 20 20
      vertex 1 20 20
      vertex 42 21 20
    endloop
  endfacet
  facet normal 0 0 -1
    outer loop
      vertex -1 21 20
      vertex 1 20 20
      vertex 0 20 20
    endloop
  endfacet
  facet normal 0 0 -1
    outer loop
      vertex 1 20 20
      vertex -1 21 20
      vertex 42 21 20
    endloop
  endfacet
  facet normal 0 0 -1
    outer loop
      vertex -1 21 20
      vertex 0 20 20
      vertex -1 -1 20
    endloop
  endfacet
  facet normal -1 0 0
    outer loop
      vertex 40 1 17.3
      vertex 40 20 20
      vertex 40 20 17.3
    endloop
  endfacet
  facet normal -1 -0 0
    outer loop
      vertex 40 20 20
      vertex 40 1 17.3
      vertex 40 1 20
    endloop
  endfacet
  facet normal -1 0 0
    outer loop
      vertex 40 1 16.5
      vertex 40 20 16.8
      vertex 40 20 16.5
    endloop
  endfacet
  facet normal -1 -0 0
    outer loop
      vertex 40 20 16.8
      vertex 40 1 16.5
      vertex 40 1 16.8
    endloop
  endfacet
  facet normal -1 0 0
    outer loop
      vertex 40 1 0
      vertex 40 20 16
      vertex 40 20 0
    endloop
  endfacet
  facet normal -1 -0 0
    outer loop
      vertex 40 20 16
      vertex 40 1 0
      vertex 40 1 16
    endloop
  endfacet
  facet normal 0 1 -0
    outer loop
      vertex 40 1 17.3
      vertex 1 1 20
      vertex 40 1 20
    endloop
  endfacet
  facet normal 0 1 0
    outer loop
      vertex 1 1 20
      vertex 40 1 17.3
      vertex 1 1 17.3
    endloop
  endfacet
  facet normal 0 1 -0
    outer loop
      vertex 40 1 0
      vertex 13 1 16
      vertex 40 1 16
    endloop
  endfacet
  facet normal 0 1 0
    outer loop
      vertex 13 1 16
      vertex 40 1 0
      vertex 13 1 0
    endloop
  endfacet
  facet normal 0 1 -0
    outer loop
      vertex 40 1 16.5
      vertex 1 1 16.8
      vertex 40 1 16.8
    endloop
  endfacet
  facet normal 0 1 0
    outer loop
      vertex 1 1 16.8
      vertex 40 1 16.5
      vertex 1 1 16.5
    endloop
  endfacet
  facet normal 0 0 -1
    outer loop
      vertex 41 0 0
      vertex 40 1 0
      vertex 41 20 0
    endloop
  endfacet
  facet normal 0 0 -1
    outer loop
      vertex 41 0 0
      vertex 13 1 0
      vertex 40 1 0
    endloop
  endfacet
  facet normal 0 0 -1
    outer loop
      vertex 13 1 0
      vertex 12 18.5 0
      vertex 13 20 0
    endloop
  endfacet
  facet normal 0 0 -1
    outer loop
      vertex 13 1 0
      vertex 1 18.5 0
      vertex 12 18.5 0
    endloop
  endfacet
  facet normal 0 0 -1
    outer loop
      vertex 0 0 0
      vertex 13 1 0
      vertex 41 0 0
    endloop
  endfacet
  facet normal 0 0 -1
    outer loop
      vertex 0 0 0
      vertex 1 18.5 0
      vertex 13 1 0
    endloop
  endfacet
  facet normal 0 0 -1
    outer loop
      vertex 0 20 0
      vertex 1 18.5 0
      vertex 0 0 0
    endloop
  endfacet
  facet normal 0 0 -1
    outer loop
      vertex 1 18.5 0
      vertex 0 20 0
      vertex 1 20 0
    endloop
  endfacet
  facet normal -0 0 -1
    outer loop
      vertex 41 20 0
      vertex 40 1 0
      vertex 40 20 0
    endloop
  endfacet
  facet normal -0 0 -1
    outer loop
      vertex 13 20 0
      vertex 12 18.5 0
      vertex 12 20 0
    endloop
  endfacet
  facet normal 0 -1 0
    outer loop
      vertex 12 0 16
      vertex 0 0 20
      vertex 1 0 16
    endloop
  endfacet
  facet normal 0 -1 0
    outer loop
      vertex 0 0 0
      vertex 1 0 16
      vertex 0 0 20
    endloop
  endfacet
  facet normal 0 -1 -0
    outer loop
      vertex 1 0 2.5
      vertex 0 0 0
      vertex 12 0 2.5
    endloop
  endfacet
  facet normal 0 -1 -0
    outer loop
      vertex 1 0 16
      vertex 0 0 0
      vertex 1 0 2.5
    endloop
  endfacet
  facet normal 0 -1 0
    outer loop
      vertex 0 0 20
      vertex 12 0 16
      vertex 41 0 20
    endloop
  endfacet
  facet normal 0 -1 0
    outer loop
      vertex 41 0 0
      vertex 12 0 16
      vertex 12 0 2.5
    endloop
  endfacet
  facet normal 0 -1 0
    outer loop
      vertex 12 0 16
      vertex 41 0 0
      vertex 41 0 20
    endloop
  endfacet
  facet normal 0 -1 0
    outer loop
      vertex 41 0 0
      vertex 12 0 2.5
      vertex 0 0 0
    endloop
  endfacet
  facet normal -1 0 0
    outer loop
      vertex 0 0 0
      vertex 0 20 20
      vertex 0 20 0
    endloop
  endfacet
  facet normal -1 -0 0
    outer loop
      vertex 0 20 20
      vertex 0 0 0
      vertex 0 0 20
    endloop
  endfacet
  facet normal 1 -0 0
    outer loop
      vertex 1 1 20
      vertex 1 20 17.3
      vertex 1 20 20
    endloop
  endfacet
  facet normal 1 0 0
    outer loop
      vertex 1 20 17.3
      vertex 1 1 20
      vertex 1 1 17.3
    endloop
  endfacet
  facet normal 1 -0 0
    outer loop
      vertex 1 18.5 2
      vertex 1 20 0
      vertex 1 20 2
    endloop
  endfacet
  facet normal 1 0 0
    outer loop
      vertex 1 20 0
      vertex 1 18.5 2
      vertex 1 18.5 0
    endloop
  endfacet
  facet normal 1 -0 0
    outer loop
      vertex 1 0 16
      vertex 1 20 2.5
      vertex 1 20 16
    endloop
  endfacet
  facet normal 1 0 0
    outer loop
      vertex 1 20 2.5
      vertex 1 0 16
      vertex 1 0 2.5
    endloop
  endfacet
  facet normal 1 -0 0
    outer loop
      vertex 1 1 16.8
      vertex 1 20 16.5
      vertex 1 20 16.8
    endloop
  endfacet
  facet normal 1 0 0
    outer loop
      vertex 1 20 16.5
      vertex 1 1 16.8
      vertex 1 1 16.5
    endloop
  endfacet
  facet normal 0 1 0
    outer loop
      vertex 13 20 16
      vertex 12 20 2.5
      vertex 12 20 16
    endloop
  endfacet
  facet normal 0 1 0
    outer loop
      vertex 12 20 2.5
      vertex 12 20 2
      vertex 1 20 2.5
    endloop
  endfacet
  facet normal 0 1 -0
    outer loop
      vertex 13 20 0
      vertex 12 20 2.5
      vertex 13 20 16
    endloop
  endfacet
  facet normal 0 1 0
    outer loop
      vertex 12 20 2.5
      vertex 13 20 0
      vertex 12 20 2
    endloop
  endfacet
  facet normal 0 1 0
    outer loop
      vertex 12 20 2
      vertex 13 20 0
      vertex 12 20 0
    endloop
  endfacet
  facet normal 0 1 0
    outer loop
      vertex 41 20 20
      vertex 40 20 17.3
      vertex 40 20 20
    endloop
  endfacet
  facet normal 0 1 0
    outer loop
      vertex 40 20 17.3
      vertex 40 20 16.8
      vertex 1 20 17.3
    endloop
  endfacet
  facet normal 0 1 0
    outer loop
      vertex 41 20 20
      vertex 40 20 16.8
      vertex 40 20 17.3
    endloop
  endfacet
  facet normal 0 1 0
    outer loop
      vertex 41 20 20
      vertex 40 20 16.5
      vertex 40 20 16.8
    endloop
  endfacet
  facet normal 0 1 0
    outer loop
      vertex 13 20 16
      vertex 40 20 16.5
      vertex 40 20 16
    endloop
  endfacet
  facet normal 0 1 0
    outer loop
      vertex 41 20 20
      vertex 40 20 16
      vertex 40 20 16.5
    endloop
  endfacet
  facet normal 0 1 -0
    outer loop
      vertex 41 20 0
      vertex 40 20 16
      vertex 41 20 20
    endloop
  endfacet
  facet normal 0 1 0
    outer loop
      vertex 40 20 16
      vertex 41 20 0
      vertex 40 20 0
    endloop
  endfacet
  facet normal 0 1 -0
    outer loop
      vertex 1 20 17.3
      vertex 0 20 20
      vertex 1 20 20
    endloop
  endfacet
  facet normal 0 1 0
    outer loop
      vertex 1 20 16.8
      vertex 1 20 17.3
      vertex 40 20 16.8
    endloop
  endfacet
  facet normal 0 1 -0
    outer loop
      vertex 1 20 16.8
      vertex 0 20 20
      vertex 1 20 17.3
    endloop
  endfacet
  facet normal 0 1 -0
    outer loop
      vertex 1 20 16.5
      vertex 0 20 20
      vertex 1 20 16.8
    endloop
  endfacet
  facet normal 0 1 0
    outer loop
      vertex 40 20 16.5
      vertex 13 20 16
      vertex 1 20 16.5
    endloop
  endfacet
  facet normal 0 1 -0
    outer loop
      vertex 12 20 16
      vertex 1 20 16.5
      vertex 13 20 16
    endloop
  endfacet
  facet normal 0 1 0
    outer loop
      vertex 1 20 16
      vertex 1 20 16.5
      vertex 12 20 16
    endloop
  endfacet
  facet normal 0 1 -0
    outer loop
      vertex 1 20 16
      vertex 0 20 20
      vertex 1 20 16.5
    endloop
  endfacet
  facet normal 0 1 0
    outer loop
      vertex 0 20 0
      vertex 1 20 16
      vertex 1 20 2.5
    endloop
  endfacet
  facet normal 0 1 0
    outer loop
      vertex 1 20 2
      vertex 1 20 2.5
      vertex 12 20 2
    endloop
  endfacet
  facet normal 0 1 0
    outer loop
      vertex 0 20 0
      vertex 1 20 2.5
      vertex 1 20 2
    endloop
  endfacet
  facet normal 0 1 0
    outer loop
      vertex 0 20 0
      vertex 1 20 2
      vertex 1 20 0
    endloop
  endfacet
  facet normal 0 1 0
    outer loop
      vertex 1 20 16
      vertex 0 20 0
      vertex 0 20 20
    endloop
  endfacet
  facet normal 1 -0 0
    outer loop
      vertex 41 0 20
      vertex 41 20 0
      vertex 41 20 20
    endloop
  endfacet
  facet normal 1 0 0
    outer loop
      vertex 41 20 0
      vertex 41 0 20
      vertex 41 0 0
    endloop
  endfacet
  facet normal -1 0 0
    outer loop
      vertex -1 -1 20
      vertex -1 21 21
      vertex -1 21 20
    endloop
  endfacet
  facet normal -1 -0 0
    outer loop
      vertex -1 21 21
      vertex -1 -1 20
      vertex -1 -1 21
    endloop
  endfacet
  facet normal -0 0 1
    outer loop
      vertex -1 21 21
      vertex 42 -1 21
      vertex 42 21 21
    endloop
  endfacet
  facet normal 0 0 1
    outer loop
      vertex 42 -1 21
      vertex -1 21 21
      vertex -1 -1 21
    endloop
  endfacet
  facet normal 1 -0 0
    outer loop
      vertex 42 -1 21
      vertex 42 21 20
      vertex 42 21 21
    endloop
  endfacet
  facet normal 1 0 0
    outer loop
      vertex 42 21 20
      vertex 42 -1 21
      vertex 42 -1 20
    endloop
  endfacet
  facet normal 0 1 -0
    outer loop
      vertex 42 21 20
      vertex -1 21 21
      vertex 42 21 21
    endloop
  endfacet
  facet normal 0 1 0
    outer loop
      vertex -1 21 21
      vertex 42 21 20
      vertex -1 21 20
    endloop
  endfacet
  facet normal 0 -1 0
    outer loop
      vertex -1 -1 20
      vertex 42 -1 21
      vertex -1 -1 21
    endloop
  endfacet
  facet normal 0 -1 -0
    outer loop
      vertex 42 -1 21
      vertex -1 -1 20
      vertex 42 -1 20
    endloop
  endfacet
  facet normal 0 0 -1
    outer loop
      vertex 13 1 16
      vertex 40 20 16
      vertex 40 1 16
    endloop
  endfacet
  facet normal -0 0 -1
    outer loop
      vertex 40 20 16
      vertex 13 1 16
      vertex 13 20 16
    endloop
  endfacet
  facet normal 0 0 -1
    outer loop
      vertex 1 0 16
      vertex 12 20 16
      vertex 12 0 16
    endloop
  endfacet
  facet normal -0 0 -1
    outer loop
      vertex 12 20 16
      vertex 1 0 16
      vertex 1 20 16
    endloop
  endfacet
  facet normal 1 -0 0
    outer loop
      vertex 13 1 16
      vertex 13 20 0
      vertex 13 20 16
    endloop
  endfacet
  facet normal 1 0 0
    outer loop
      vertex 13 20 0
      vertex 13 1 16
      vertex 13 1 0
    endloop
  endfacet
  facet normal -0 0 1
    outer loop
      vertex 1 20 16.5
      vertex 40 1 16.5
      vertex 40 20 16.5
    endloop
  endfacet
  facet normal 0 0 1
    outer loop
      vertex 40 1 16.5
      vertex 1 20 16.5
      vertex 1 1 16.5
    endloop
  endfacet
  facet normal -0 0 1
    outer loop
      vertex 1 20 17.3
      vertex 40 1 17.3
      vertex 40 20 17.3
    endloop
  endfacet
  facet normal 0 0 1
    outer loop
      vertex 40 1 17.3
      vertex 1 20 17.3
      vertex 1 1 17.3
    endloop
  endfacet
  facet normal 0 0 -1
    outer loop
      vertex 1 1 16.8
      vertex 40 20 16.8
      vertex 40 1 16.8
    endloop
  endfacet
  facet normal -0 0 -1
    outer loop
      vertex 40 20 16.8
      vertex 1 1 16.8
      vertex 1 20 16.8
    endloop
  endfacet
  facet normal -0 0 1
    outer loop
      vertex 1 20 2.5
      vertex 12 0 2.5
      vertex 12 20 2.5
    endloop
  endfacet
  facet normal 0 0 1
    outer loop
      vertex 12 0 2.5
      vertex 1 20 2.5
      vertex 1 0 2.5
    endloop
  endfacet
  facet normal 0 0 -1
    outer loop
      vertex 1 18.5 2
      vertex 12 20 2
      vertex 12 18.5 2
    endloop
  endfacet
  facet normal -0 0 -1
    outer loop
      vertex 12 20 2
      vertex 1 18.5 2
      vertex 1 20 2
    endloop
  endfacet
  facet normal 0 1 -0
    outer loop
      vertex 12 18.5 0
      vertex 1 18.5 2
      vertex 12 18.5 2
    endloop
  endfacet
  facet normal 0 1 0
    outer loop
      vertex 1 18.5 2
      vertex 12 18.5 0
      vertex 1 18.5 0
    endloop
  endfacet
endsolid OpenSCAD_Model
