solid OpenSCAD_Model
  facet normal -1 0 0
    outer loop
      vertex 0 0 0
      vertex 0 19 1
      vertex 0 19 0
    endloop
  endfacet
  facet normal -1 -0 0
    outer loop
      vertex 0 19 1
      vertex 0 0 0
      vertex 0 19 6
    endloop
  endfacet
  facet normal -1 -0 0
    outer loop
      vertex 0 19 6
      vertex 0 0 0
      vertex 0 19 7
    endloop
  endfacet
  facet normal -1 -0 0
    outer loop
      vertex 0 19 7
      vertex 0 0 0
      vertex 0 19 12
    endloop
  endfacet
  facet normal -1 0 0
    outer loop
      vertex 0 0 20
      vertex 0 19 12
      vertex 0 0 0
    endloop
  endfacet
  facet normal -1 0 0
    outer loop
      vertex 0 19 12
      vertex 0 0 20
      vertex 0 19 12.5
    endloop
  endfacet
  facet normal -1 0 0
    outer loop
      vertex 0 19 12.5
      vertex 0 0 20
      vertex 0 19 19.5
    endloop
  endfacet
  facet normal -1 0 0
    outer loop
      vertex 0 19 19.5
      vertex 0 0 20
      vertex 0 19 20
    endloop
  endfacet
  facet normal -1 0 0
    outer loop
      vertex 0 19 1
      vertex 0 20 6
      vertex 0 20 1
    endloop
  endfacet
  facet normal -1 -0 0
    outer loop
      vertex 0 20 6
      vertex 0 19 1
      vertex 0 19 6
    endloop
  endfacet
  facet normal -1 0 0
    outer loop
      vertex 0 19 7
      vertex 0 20 12
      vertex 0 20 7
    endloop
  endfacet
  facet normal -1 -0 0
    outer loop
      vertex 0 20 12
      vertex 0 19 7
      vertex 0 19 12
    endloop
  endfacet
  facet normal -1 0 0
    outer loop
      vertex 0 19 12.5
      vertex 0 20 19.5
      vertex 0 20 12.5
    endloop
  endfacet
  facet normal -1 -0 0
    outer loop
      vertex 0 20 19.5
      vertex 0 19 12.5
      vertex 0 19 19.5
    endloop
  endfacet
  facet normal 0 0 -1
    outer loop
      vertex 0.5 19 20
      vertex 16 2 20
      vertex 0.5 2 20
    endloop
  endfacet
  facet normal 0 0 -1
    outer loop
      vertex 40 2 20
      vertex 16.5 2 20
      vertex 40 20 20
    endloop
  endfacet
  facet normal 0 0 -1
    outer loop
      vertex 44 -2 20
      vertex 40.5 0 20
      vertex 44 22 20
    endloop
  endfacet
  facet normal 0 0 -1
    outer loop
      vertex -2 -2 20
      vertex 40.5 0 20
      vertex 44 -2 20
    endloop
  endfacet
  facet normal -0 0 -1
    outer loop
      vertex 0 0 20
      vertex -2 -2 20
      vertex 0 19 20
    endloop
  endfacet
  facet normal -0 0 -1
    outer loop
      vertex 40.5 0 20
      vertex -2 -2 20
      vertex 0 0 20
    endloop
  endfacet
  facet normal 0 0 -1
    outer loop
      vertex 40.5 20 20
      vertex 44 22 20
      vertex 40.5 0 20
    endloop
  endfacet
  facet normal 0 0 -1
    outer loop
      vertex 40 20 20
      vertex 44 22 20
      vertex 40.5 20 20
    endloop
  endfacet
  facet normal 0 0 -1
    outer loop
      vertex 16.5 20 20
      vertex 40 20 20
      vertex 16.5 2 20
    endloop
  endfacet
  facet normal 0 0 -1
    outer loop
      vertex 16.5 20 20
      vertex 44 22 20
      vertex 40 20 20
    endloop
  endfacet
  facet normal 0 0 -1
    outer loop
      vertex -2 22 20
      vertex 16.5 20 20
      vertex 16 20 20
    endloop
  endfacet
  facet normal 0 0 -1
    outer loop
      vertex 16 2 20
      vertex 0.5 19 20
      vertex 16 20 20
    endloop
  endfacet
  facet normal 0 0 -1
    outer loop
      vertex -2 22 20
      vertex 16 20 20
      vertex 0.5 19 20
    endloop
  endfacet
  facet normal 0 0 -1
    outer loop
      vertex -2 22 20
      vertex 0.5 19 20
      vertex 0 19 20
    endloop
  endfacet
  facet normal 0 0 -1
    outer loop
      vertex 16.5 20 20
      vertex -2 22 20
      vertex 44 22 20
    endloop
  endfacet
  facet normal 0 0 -1
    outer loop
      vertex -2 22 20
      vertex 0 19 20
      vertex -2 -2 20
    endloop
  endfacet
  facet normal -1 0 0
    outer loop
      vertex 40 20 0
      vertex 40 2 10
      vertex 40 20 20
    endloop
  endfacet
  facet normal -1 0 0
    outer loop
      vertex 40 0 0
      vertex 40 2 10
      vertex 40 20 0
    endloop
  endfacet
  facet normal -1 -0 0
    outer loop
      vertex 40 2 10
      vertex 40 0 0
      vertex 40 0 10
    endloop
  endfacet
  facet normal -1 -0 0
    outer loop
      vertex 40 20 20
      vertex 40 2 10
      vertex 40 2 20
    endloop
  endfacet
  facet normal 0 0 -1
    outer loop
      vertex 16.5 0 10
      vertex 40 2 10
      vertex 40 0 10
    endloop
  endfacet
  facet normal -0 0 -1
    outer loop
      vertex 40 2 10
      vertex 16.5 0 10
      vertex 16.5 2 10
    endloop
  endfacet
  facet normal 0 0 -1
    outer loop
      vertex 0.5 1 10
      vertex 16 2 10
      vertex 16 1 10
    endloop
  endfacet
  facet normal -0 0 -1
    outer loop
      vertex 16 2 10
      vertex 0.5 1 10
      vertex 0.5 2 10
    endloop
  endfacet
  facet normal 0 -1 0
    outer loop
      vertex 0 0 20
      vertex 16.5 0 10
      vertex 40.5 0 20
    endloop
  endfacet
  facet normal 0 -1 0
    outer loop
      vertex 0 0 0
      vertex 16.5 0 10
      vertex 0 0 20
    endloop
  endfacet
  facet normal 0 -1 -0
    outer loop
      vertex 16.5 0 10
      vertex 0 0 0
      vertex 16.5 0 0
    endloop
  endfacet
  facet normal 0 -1 0
    outer loop
      vertex 40 0 10
      vertex 40.5 0 20
      vertex 16.5 0 10
    endloop
  endfacet
  facet normal 0 -1 0
    outer loop
      vertex 40.5 0 0
      vertex 40 0 10
      vertex 40 0 0
    endloop
  endfacet
  facet normal 0 -1 0
    outer loop
      vertex 40 0 10
      vertex 40.5 0 0
      vertex 40.5 0 20
    endloop
  endfacet
  facet normal 0 1 -0
    outer loop
      vertex 40 2 10
      vertex 16.5 2 20
      vertex 40 2 20
    endloop
  endfacet
  facet normal 0 1 0
    outer loop
      vertex 16.5 2 20
      vertex 40 2 10
      vertex 16.5 2 10
    endloop
  endfacet
  facet normal 0 1 -0
    outer loop
      vertex 16 2 10
      vertex 0.5 2 20
      vertex 16 2 20
    endloop
  endfacet
  facet normal 0 1 0
    outer loop
      vertex 0.5 2 20
      vertex 16 2 10
      vertex 0.5 2 10
    endloop
  endfacet
  facet normal 1 -0 0
    outer loop
      vertex 0.5 2 20
      vertex 0.5 19 19.5
      vertex 0.5 19 20
    endloop
  endfacet
  facet normal 1 0 0
    outer loop
      vertex 0.5 19 19.5
      vertex 0.5 18 12
      vertex 0.5 19 12.5
    endloop
  endfacet
  facet normal 1 0 0
    outer loop
      vertex 0.5 19 12.5
      vertex 0.5 18 12
      vertex 0.5 19 12
    endloop
  endfacet
  facet normal 1 -0 0
    outer loop
      vertex 0.5 2 10
      vertex 0.5 18 7
      vertex 0.5 18 12
    endloop
  endfacet
  facet normal 1 0 0
    outer loop
      vertex 0.5 18 7
      vertex 0.5 2 10
      vertex 0.5 18 6
    endloop
  endfacet
  facet normal 1 0 0
    outer loop
      vertex 0.5 2 10
      vertex 0.5 18 12
      vertex 0.5 2 20
    endloop
  endfacet
  facet normal 1 0 0
    outer loop
      vertex 0.5 19 19.5
      vertex 0.5 2 20
      vertex 0.5 18 12
    endloop
  endfacet
  facet normal 1 -0 0
    outer loop
      vertex 0.5 18 7
      vertex 0.5 19 6
      vertex 0.5 19 7
    endloop
  endfacet
  facet normal 1 0 0
    outer loop
      vertex 0.5 19 6
      vertex 0.5 18 7
      vertex 0.5 18 6
    endloop
  endfacet
  facet normal 1 -0 0
    outer loop
      vertex 0.5 18 1
      vertex 0.5 19 0
      vertex 0.5 19 1
    endloop
  endfacet
  facet normal 1 0 0
    outer loop
      vertex 0.5 1 0.5
      vertex 0.5 18 6
      vertex 0.5 2 10
    endloop
  endfacet
  facet normal 1 0 0
    outer loop
      vertex 0.5 18 6
      vertex 0.5 1 0.5
      vertex 0.5 18 1
    endloop
  endfacet
  facet normal 1 0 0
    outer loop
      vertex 0.5 1 0.5
      vertex 0.5 2 10
      vertex 0.5 1 10
    endloop
  endfacet
  facet normal 1 0 0
    outer loop
      vertex 0.5 18 1
      vertex 0.5 1 0.5
      vertex 0.5 19 0
    endloop
  endfacet
  facet normal 1 0 0
    outer loop
      vertex 0.5 0.5 0
      vertex 0.5 1 0.5
      vertex 0.5 0.5 0.5
    endloop
  endfacet
  facet normal 1 0 0
    outer loop
      vertex 0.5 1 0.5
      vertex 0.5 0.5 0
      vertex 0.5 19 0
    endloop
  endfacet
  facet normal 0 0 -1
    outer loop
      vertex 16.5 0 0
      vertex 16 0.5 0
      vertex 16.5 20 0
    endloop
  endfacet
  facet normal 0 0 -1
    outer loop
      vertex 16.5 0 0
      vertex 0.5 0.5 0
      vertex 16 0.5 0
    endloop
  endfacet
  facet normal 0 0 -1
    outer loop
      vertex 0 0 0
      vertex 0.5 0.5 0
      vertex 16.5 0 0
    endloop
  endfacet
  facet normal 0 0 -1
    outer loop
      vertex 0 19 0
      vertex 0.5 0.5 0
      vertex 0 0 0
    endloop
  endfacet
  facet normal 0 0 -1
    outer loop
      vertex 0.5 0.5 0
      vertex 0 19 0
      vertex 0.5 19 0
    endloop
  endfacet
  facet normal -0 0 -1
    outer loop
      vertex 16.5 20 0
      vertex 16 0.5 0
      vertex 16 20 0
    endloop
  endfacet
  facet normal 0 1 -0
    outer loop
      vertex 0.5 19 19.5
      vertex 0 19 20
      vertex 0.5 19 20
    endloop
  endfacet
  facet normal 0 1 0
    outer loop
      vertex 0 19 20
      vertex 0.5 19 19.5
      vertex 0 19 19.5
    endloop
  endfacet
  facet normal 0 -1 0
    outer loop
      vertex 16.5 19 12.5
      vertex 17 19 19.5
      vertex 16.5 19 19.5
    endloop
  endfacet
  facet normal 0 -1 -0
    outer loop
      vertex 17 19 19.5
      vertex 16.5 19 12.5
      vertex 17 19 12.5
    endloop
  endfacet
  facet normal 0 1 -0
    outer loop
      vertex 0.5 19 12
      vertex 0 19 12.5
      vertex 0.5 19 12.5
    endloop
  endfacet
  facet normal 0 1 0
    outer loop
      vertex 0 19 12.5
      vertex 0.5 19 12
      vertex 0 19 12
    endloop
  endfacet
  facet normal 0 1 -0
    outer loop
      vertex 0.5 19 0
      vertex 0 19 1
      vertex 0.5 19 1
    endloop
  endfacet
  facet normal 0 1 0
    outer loop
      vertex 0 19 1
      vertex 0.5 19 0
      vertex 0 19 0
    endloop
  endfacet
  facet normal 0 1 -0
    outer loop
      vertex 0.5 19 6
      vertex 0 19 7
      vertex 0.5 19 7
    endloop
  endfacet
  facet normal 0 1 0
    outer loop
      vertex 0 19 7
      vertex 0.5 19 6
      vertex 0 19 6
    endloop
  endfacet
  facet normal 0 -1 0
    outer loop
      vertex 0.5 19 12.5
      vertex 16 19 19.5
      vertex 0.5 19 19.5
    endloop
  endfacet
  facet normal 0 -1 -0
    outer loop
      vertex 16 19 19.5
      vertex 0.5 19 12.5
      vertex 16 19 12.5
    endloop
  endfacet
  facet normal 1 -0 0
    outer loop
      vertex 40.5 0 20
      vertex 40.5 20 0
      vertex 40.5 20 20
    endloop
  endfacet
  facet normal 1 0 0
    outer loop
      vertex 40.5 20 0
      vertex 40.5 0 20
      vertex 40.5 0 0
    endloop
  endfacet
  facet normal 0 1 -0
    outer loop
      vertex 40.5 20 0
      vertex 40 20 20
      vertex 40.5 20 20
    endloop
  endfacet
  facet normal 0 1 0
    outer loop
      vertex 40 20 20
      vertex 40.5 20 0
      vertex 40 20 0
    endloop
  endfacet
  facet normal 0 0 -1
    outer loop
      vertex 40 0 0
      vertex 40.5 20 0
      vertex 40.5 0 0
    endloop
  endfacet
  facet normal -0 0 -1
    outer loop
      vertex 40.5 20 0
      vertex 40 0 0
      vertex 40 20 0
    endloop
  endfacet
  facet normal -1 0 0
    outer loop
      vertex -2 -2 20
      vertex -2 22 20.5
      vertex -2 22 20
    endloop
  endfacet
  facet normal -1 -0 0
    outer loop
      vertex -2 22 20.5
      vertex -2 -2 20
      vertex -2 -2 20.5
    endloop
  endfacet
  facet normal 0 0 1
    outer loop
      vertex 44 22 20.5
      vertex 10.5 12 20.5
      vertex 44 -2 20.5
    endloop
  endfacet
  facet normal -0 0 1
    outer loop
      vertex -2 22 20.5
      vertex 10.5 12 20.5
      vertex 44 22 20.5
    endloop
  endfacet
  facet normal 0 0 1
    outer loop
      vertex 10 12 20.5
      vertex 0.5 12 20.5
      vertex 10 0 20.5
    endloop
  endfacet
  facet normal 0 0 1
    outer loop
      vertex 10.5 12 20.5
      vertex -2 22 20.5
      vertex 10 12 20.5
    endloop
  endfacet
  facet normal 0 0 1
    outer loop
      vertex 10 12 20.5
      vertex -2 22 20.5
      vertex 0.5 12 20.5
    endloop
  endfacet
  facet normal 0 0 1
    outer loop
      vertex -2 -2 20.5
      vertex 0 12 20.5
      vertex -2 22 20.5
    endloop
  endfacet
  facet normal 0 0 1
    outer loop
      vertex 0.5 12 20.5
      vertex -2 22 20.5
      vertex 0 12 20.5
    endloop
  endfacet
  facet normal -0 0 1
    outer loop
      vertex 10.5 0 20.5
      vertex 44 -2 20.5
      vertex 10.5 12 20.5
    endloop
  endfacet
  facet normal 0 0 1
    outer loop
      vertex -2 -2 20.5
      vertex 10.5 0 20.5
      vertex 10 0 20.5
    endloop
  endfacet
  facet normal 0 0 1
    outer loop
      vertex 0.5 0 20.5
      vertex 10 0 20.5
      vertex 0.5 12 20.5
    endloop
  endfacet
  facet normal 0 0 1
    outer loop
      vertex -2 -2 20.5
      vertex 10 0 20.5
      vertex 0.5 0 20.5
    endloop
  endfacet
  facet normal 0 0 1
    outer loop
      vertex -2 -2 20.5
      vertex 0.5 0 20.5
      vertex 0 0 20.5
    endloop
  endfacet
  facet normal 0 0 1
    outer loop
      vertex 10.5 0 20.5
      vertex -2 -2 20.5
      vertex 44 -2 20.5
    endloop
  endfacet
  facet normal 0 0 1
    outer loop
      vertex 0 12 20.5
      vertex -2 -2 20.5
      vertex 0 0 20.5
    endloop
  endfacet
  facet normal 1 -0 0
    outer loop
      vertex 44 -2 20.5
      vertex 44 22 20
      vertex 44 22 20.5
    endloop
  endfacet
  facet normal 1 0 0
    outer loop
      vertex 44 22 20
      vertex 44 -2 20.5
      vertex 44 -2 20
    endloop
  endfacet
  facet normal 0 -1 0
    outer loop
      vertex -2 -2 20
      vertex 44 -2 20.5
      vertex -2 -2 20.5
    endloop
  endfacet
  facet normal 0 -1 -0
    outer loop
      vertex 44 -2 20.5
      vertex -2 -2 20
      vertex 44 -2 20
    endloop
  endfacet
  facet normal 0 1 -0
    outer loop
      vertex 44 22 20
      vertex -2 22 20.5
      vertex 44 22 20.5
    endloop
  endfacet
  facet normal 0 1 0
    outer loop
      vertex -2 22 20.5
      vertex 44 22 20
      vertex -2 22 20
    endloop
  endfacet
  facet normal -1 0 0
    outer loop
      vertex 16 20 12
      vertex 16 19 12.5
      vertex 16 20 12.5
    endloop
  endfacet
  facet normal -1 -0 0
    outer loop
      vertex 16 19 12.5
      vertex 16 18 12
      vertex 16 19 19.5
    endloop
  endfacet
  facet normal -1 0 0
    outer loop
      vertex 16 18 12
      vertex 16 19 12.5
      vertex 16 20 12
    endloop
  endfacet
  facet normal -1 0 0
    outer loop
      vertex 16 19 19.5
      vertex 16 20 20
      vertex 16 20 19.5
    endloop
  endfacet
  facet normal -1 0 0
    outer loop
      vertex 16 2 20
      vertex 16 18 12
      vertex 16 2 10
    endloop
  endfacet
  facet normal -1 0 0
    outer loop
      vertex 16 19 19.5
      vertex 16 2 20
      vertex 16 20 20
    endloop
  endfacet
  facet normal -1 0 0
    outer loop
      vertex 16 18 12
      vertex 16 2 20
      vertex 16 19 19.5
    endloop
  endfacet
  facet normal -1 0 0
    outer loop
      vertex 16 20 0
      vertex 16 18 1
      vertex 16 20 1
    endloop
  endfacet
  facet normal -1 0 0
    outer loop
      vertex 16 1 0.5
      vertex 16 18 6
      vertex 16 18 1
    endloop
  endfacet
  facet normal -1 0 -0
    outer loop
      vertex 16 2 10
      vertex 16 18 6
      vertex 16 1 0.5
    endloop
  endfacet
  facet normal -1 0 0
    outer loop
      vertex 16 18 7
      vertex 16 2 10
      vertex 16 18 12
    endloop
  endfacet
  facet normal -1 0 0
    outer loop
      vertex 16 18 6
      vertex 16 2 10
      vertex 16 18 7
    endloop
  endfacet
  facet normal -1 0 0
    outer loop
      vertex 16 0.5 0
      vertex 16 18 1
      vertex 16 20 0
    endloop
  endfacet
  facet normal -1 0 0
    outer loop
      vertex 16 18 1
      vertex 16 0.5 0
      vertex 16 1 0.5
    endloop
  endfacet
  facet normal -1 -0 0
    outer loop
      vertex 16 1 0.5
      vertex 16 0.5 0
      vertex 16 0.5 0.5
    endloop
  endfacet
  facet normal -1 0 0
    outer loop
      vertex 16 18 6
      vertex 16 20 7
      vertex 16 20 6
    endloop
  endfacet
  facet normal -1 -0 0
    outer loop
      vertex 16 20 7
      vertex 16 18 6
      vertex 16 18 7
    endloop
  endfacet
  facet normal -1 -0 0
    outer loop
      vertex 16 2 10
      vertex 16 1 0.5
      vertex 16 1 10
    endloop
  endfacet
  facet normal 0 1 -0
    outer loop
      vertex 16 0.5 0
      vertex 0.5 0.5 0.5
      vertex 16 0.5 0.5
    endloop
  endfacet
  facet normal 0 1 0
    outer loop
      vertex 0.5 0.5 0.5
      vertex 16 0.5 0
      vertex 0.5 0.5 0
    endloop
  endfacet
  facet normal 1 0 0
    outer loop
      vertex 16.5 20 20
      vertex 16.5 19 19.5
      vertex 16.5 20 19.5
    endloop
  endfacet
  facet normal 1 0 0
    outer loop
      vertex 16.5 19 19.5
      vertex 16.5 18 12
      vertex 16.5 19 12.5
    endloop
  endfacet
  facet normal 1 -0 0
    outer loop
      vertex 16.5 2 10
      vertex 16.5 18 7
      vertex 16.5 18 12
    endloop
  endfacet
  facet normal 1 0 0
    outer loop
      vertex 16.5 18 7
      vertex 16.5 2 10
      vertex 16.5 18 6
    endloop
  endfacet
  facet normal 1 0 0
    outer loop
      vertex 16.5 2 10
      vertex 16.5 18 12
      vertex 16.5 2 20
    endloop
  endfacet
  facet normal 1 0 0
    outer loop
      vertex 16.5 19 19.5
      vertex 16.5 2 20
      vertex 16.5 18 12
    endloop
  endfacet
  facet normal 1 -0 0
    outer loop
      vertex 16.5 2 20
      vertex 16.5 19 19.5
      vertex 16.5 20 20
    endloop
  endfacet
  facet normal 1 -0 0
    outer loop
      vertex 16.5 19 12.5
      vertex 16.5 20 12
      vertex 16.5 20 12.5
    endloop
  endfacet
  facet normal 1 0 0
    outer loop
      vertex 16.5 20 12
      vertex 16.5 19 12.5
      vertex 16.5 18 12
    endloop
  endfacet
  facet normal 1 -0 0
    outer loop
      vertex 16.5 18 7
      vertex 16.5 20 6
      vertex 16.5 20 7
    endloop
  endfacet
  facet normal 1 0 0
    outer loop
      vertex 16.5 20 6
      vertex 16.5 18 7
      vertex 16.5 18 6
    endloop
  endfacet
  facet normal 1 -0 0
    outer loop
      vertex 16.5 18 1
      vertex 16.5 20 0
      vertex 16.5 20 1
    endloop
  endfacet
  facet normal 1 0 0
    outer loop
      vertex 16.5 18 6
      vertex 16.5 2 10
      vertex 16.5 18 1
    endloop
  endfacet
  facet normal 1 0 0
    outer loop
      vertex 16.5 0 0
      vertex 16.5 2 10
      vertex 16.5 0 10
    endloop
  endfacet
  facet normal 1 0 0
    outer loop
      vertex 16.5 2 10
      vertex 16.5 0 0
      vertex 16.5 18 1
    endloop
  endfacet
  facet normal 1 0 0
    outer loop
      vertex 16.5 18 1
      vertex 16.5 0 0
      vertex 16.5 20 0
    endloop
  endfacet
  facet normal 0 1 -0
    outer loop
      vertex 16.5 20 0
      vertex 16 20 1
      vertex 16.5 20 1
    endloop
  endfacet
  facet normal 0 1 0
    outer loop
      vertex 16 20 1
      vertex 16.5 20 0
      vertex 16 20 0
    endloop
  endfacet
  facet normal 0 1 0
    outer loop
      vertex 16.5 20 1
      vertex 16.5 20 6
      vertex 17 20 6
    endloop
  endfacet
  facet normal 0 1 0
    outer loop
      vertex 16.5 20 6
      vertex 16.5 20 1
      vertex 16 20 6
    endloop
  endfacet
  facet normal 0 1 0
    outer loop
      vertex 16.5 20 1
      vertex 17 20 6
      vertex 17 20 1
    endloop
  endfacet
  facet normal 0 1 0
    outer loop
      vertex 16 20 6
      vertex 16.5 20 1
      vertex 16 20 1
    endloop
  endfacet
  facet normal 0 1 0
    outer loop
      vertex 16 20 6
      vertex 16 20 1
      vertex 0 20 6
    endloop
  endfacet
  facet normal 0 1 0
    outer loop
      vertex 0 20 6
      vertex 16 20 1
      vertex 0 20 1
    endloop
  endfacet
  facet normal 0 1 -0
    outer loop
      vertex 16.5 20 6
      vertex 16 20 7
      vertex 16.5 20 7
    endloop
  endfacet
  facet normal 0 1 0
    outer loop
      vertex 16 20 7
      vertex 16.5 20 6
      vertex 16 20 6
    endloop
  endfacet
  facet normal 0 1 0
    outer loop
      vertex 16.5 20 7
      vertex 16.5 20 12
      vertex 17 20 12
    endloop
  endfacet
  facet normal 0 1 0
    outer loop
      vertex 16.5 20 12
      vertex 16.5 20 7
      vertex 16 20 12
    endloop
  endfacet
  facet normal 0 1 0
    outer loop
      vertex 16.5 20 7
      vertex 17 20 12
      vertex 17 20 7
    endloop
  endfacet
  facet normal 0 1 0
    outer loop
      vertex 16 20 12
      vertex 16.5 20 7
      vertex 16 20 7
    endloop
  endfacet
  facet normal 0 1 0
    outer loop
      vertex 16 20 12
      vertex 16 20 7
      vertex 0 20 12
    endloop
  endfacet
  facet normal 0 1 0
    outer loop
      vertex 0 20 12
      vertex 16 20 7
      vertex 0 20 7
    endloop
  endfacet
  facet normal 0 1 -0
    outer loop
      vertex 16.5 20 12
      vertex 16 20 12.5
      vertex 16.5 20 12.5
    endloop
  endfacet
  facet normal 0 1 0
    outer loop
      vertex 16 20 12.5
      vertex 16.5 20 12
      vertex 16 20 12
    endloop
  endfacet
  facet normal 0 1 0
    outer loop
      vertex 16.5 20 12.5
      vertex 16.5 20 19.5
      vertex 17 20 19.5
    endloop
  endfacet
  facet normal 0 1 0
    outer loop
      vertex 16.5 20 19.5
      vertex 16.5 20 12.5
      vertex 16 20 19.5
    endloop
  endfacet
  facet normal 0 1 0
    outer loop
      vertex 16.5 20 12.5
      vertex 17 20 19.5
      vertex 17 20 12.5
    endloop
  endfacet
  facet normal 0 1 0
    outer loop
      vertex 16 20 19.5
      vertex 16.5 20 12.5
      vertex 16 20 12.5
    endloop
  endfacet
  facet normal 0 1 0
    outer loop
      vertex 16 20 19.5
      vertex 16 20 12.5
      vertex 0 20 19.5
    endloop
  endfacet
  facet normal 0 1 0
    outer loop
      vertex 0 20 19.5
      vertex 16 20 12.5
      vertex 0 20 12.5
    endloop
  endfacet
  facet normal 0 1 -0
    outer loop
      vertex 16.5 20 19.5
      vertex 16 20 20
      vertex 16.5 20 20
    endloop
  endfacet
  facet normal 0 1 0
    outer loop
      vertex 16 20 20
      vertex 16.5 20 19.5
      vertex 16 20 19.5
    endloop
  endfacet
  facet normal -0 0 1
    outer loop
      vertex 16.5 20 12
      vertex 17 18 12
      vertex 17 20 12
    endloop
  endfacet
  facet normal 0 0 1
    outer loop
      vertex 17 18 12
      vertex 16.5 20 12
      vertex 16.5 18 12
    endloop
  endfacet
  facet normal 0 0 1
    outer loop
      vertex 16 20 12
      vertex 0.5 19 12
      vertex 16 18 12
    endloop
  endfacet
  facet normal -0 0 1
    outer loop
      vertex 0 20 12
      vertex 0.5 19 12
      vertex 16 20 12
    endloop
  endfacet
  facet normal 0 0 1
    outer loop
      vertex 0.5 19 12
      vertex 0 20 12
      vertex 0 19 12
    endloop
  endfacet
  facet normal 0 0 1
    outer loop
      vertex 16 18 12
      vertex 0.5 19 12
      vertex 0.5 18 12
    endloop
  endfacet
  facet normal 1 -0 0
    outer loop
      vertex 17 18 12
      vertex 17 20 7
      vertex 17 20 12
    endloop
  endfacet
  facet normal 1 0 0
    outer loop
      vertex 17 20 7
      vertex 17 18 12
      vertex 17 18 7
    endloop
  endfacet
  facet normal 0 0 -1
    outer loop
      vertex 0.5 19 7
      vertex 16 18 7
      vertex 0.5 18 7
    endloop
  endfacet
  facet normal 0 0 -1
    outer loop
      vertex 16 18 7
      vertex 0.5 19 7
      vertex 16 20 7
    endloop
  endfacet
  facet normal 0 0 -1
    outer loop
      vertex 0 20 7
      vertex 0.5 19 7
      vertex 0 19 7
    endloop
  endfacet
  facet normal 0 0 -1
    outer loop
      vertex 0.5 19 7
      vertex 0 20 7
      vertex 16 20 7
    endloop
  endfacet
  facet normal 0 0 -1
    outer loop
      vertex 16.5 18 7
      vertex 17 20 7
      vertex 17 18 7
    endloop
  endfacet
  facet normal -0 0 -1
    outer loop
      vertex 17 20 7
      vertex 16.5 18 7
      vertex 16.5 20 7
    endloop
  endfacet
  facet normal 0 -1 0
    outer loop
      vertex 16.5 18 7
      vertex 17 18 12
      vertex 16.5 18 12
    endloop
  endfacet
  facet normal 0 -1 -0
    outer loop
      vertex 17 18 12
      vertex 16.5 18 7
      vertex 17 18 7
    endloop
  endfacet
  facet normal 0 -1 0
    outer loop
      vertex 0.5 18 7
      vertex 16 18 12
      vertex 0.5 18 12
    endloop
  endfacet
  facet normal 0 -1 -0
    outer loop
      vertex 16 18 12
      vertex 0.5 18 7
      vertex 16 18 7
    endloop
  endfacet
  facet normal -0 0 1
    outer loop
      vertex 16.5 20 6
      vertex 17 18 6
      vertex 17 20 6
    endloop
  endfacet
  facet normal 0 0 1
    outer loop
      vertex 17 18 6
      vertex 16.5 20 6
      vertex 16.5 18 6
    endloop
  endfacet
  facet normal 0 0 1
    outer loop
      vertex 16 20 6
      vertex 0.5 19 6
      vertex 16 18 6
    endloop
  endfacet
  facet normal -0 0 1
    outer loop
      vertex 0 20 6
      vertex 0.5 19 6
      vertex 16 20 6
    endloop
  endfacet
  facet normal 0 0 1
    outer loop
      vertex 0.5 19 6
      vertex 0 20 6
      vertex 0 19 6
    endloop
  endfacet
  facet normal 0 0 1
    outer loop
      vertex 16 18 6
      vertex 0.5 19 6
      vertex 0.5 18 6
    endloop
  endfacet
  facet normal 1 -0 0
    outer loop
      vertex 17 18 6
      vertex 17 20 1
      vertex 17 20 6
    endloop
  endfacet
  facet normal 1 0 0
    outer loop
      vertex 17 20 1
      vertex 17 18 6
      vertex 17 18 1
    endloop
  endfacet
  facet normal 0 0 -1
    outer loop
      vertex 0.5 19 1
      vertex 16 18 1
      vertex 0.5 18 1
    endloop
  endfacet
  facet normal 0 0 -1
    outer loop
      vertex 16 18 1
      vertex 0.5 19 1
      vertex 16 20 1
    endloop
  endfacet
  facet normal 0 0 -1
    outer loop
      vertex 0 20 1
      vertex 0.5 19 1
      vertex 0 19 1
    endloop
  endfacet
  facet normal 0 0 -1
    outer loop
      vertex 0.5 19 1
      vertex 0 20 1
      vertex 16 20 1
    endloop
  endfacet
  facet normal 0 0 -1
    outer loop
      vertex 16.5 18 1
      vertex 17 20 1
      vertex 17 18 1
    endloop
  endfacet
  facet normal -0 0 -1
    outer loop
      vertex 17 20 1
      vertex 16.5 18 1
      vertex 16.5 20 1
    endloop
  endfacet
  facet normal 0 -1 0
    outer loop
      vertex 16.5 18 1
      vertex 17 18 6
      vertex 16.5 18 6
    endloop
  endfacet
  facet normal 0 -1 -0
    outer loop
      vertex 17 18 6
      vertex 16.5 18 1
      vertex 17 18 1
    endloop
  endfacet
  facet normal 0 -1 0
    outer loop
      vertex 0.5 18 1
      vertex 16 18 6
      vertex 0.5 18 6
    endloop
  endfacet
  facet normal 0 -1 -0
    outer loop
      vertex 16 18 6
      vertex 0.5 18 1
      vertex 16 18 1
    endloop
  endfacet
  facet normal 0 0 -1
    outer loop
      vertex 0.5 0.5 0.5
      vertex 16 1 0.5
      vertex 16 0.5 0.5
    endloop
  endfacet
  facet normal -0 0 -1
    outer loop
      vertex 16 1 0.5
      vertex 0.5 0.5 0.5
      vertex 0.5 1 0.5
    endloop
  endfacet
  facet normal 0 1 -0
    outer loop
      vertex 16 1 0.5
      vertex 0.5 1 10
      vertex 16 1 10
    endloop
  endfacet
  facet normal 0 1 0
    outer loop
      vertex 0.5 1 10
      vertex 16 1 0.5
      vertex 0.5 1 0.5
    endloop
  endfacet
  facet normal 0 0 1
    outer loop
      vertex 16 20 19.5
      vertex 0.5 19 19.5
      vertex 16 19 19.5
    endloop
  endfacet
  facet normal -0 0 1
    outer loop
      vertex 0 20 19.5
      vertex 0.5 19 19.5
      vertex 16 20 19.5
    endloop
  endfacet
  facet normal 0 0 1
    outer loop
      vertex 0.5 19 19.5
      vertex 0 20 19.5
      vertex 0 19 19.5
    endloop
  endfacet
  facet normal -0 0 1
    outer loop
      vertex 16.5 20 19.5
      vertex 17 19 19.5
      vertex 17 20 19.5
    endloop
  endfacet
  facet normal 0 0 1
    outer loop
      vertex 17 19 19.5
      vertex 16.5 20 19.5
      vertex 16.5 19 19.5
    endloop
  endfacet
  facet normal 1 -0 0
    outer loop
      vertex 17 19 19.5
      vertex 17 20 12.5
      vertex 17 20 19.5
    endloop
  endfacet
  facet normal 1 0 0
    outer loop
      vertex 17 20 12.5
      vertex 17 19 19.5
      vertex 17 19 12.5
    endloop
  endfacet
  facet normal 0 0 -1
    outer loop
      vertex 0.5 19 12.5
      vertex 16 20 12.5
      vertex 16 19 12.5
    endloop
  endfacet
  facet normal 0 0 -1
    outer loop
      vertex 0 20 12.5
      vertex 0.5 19 12.5
      vertex 0 19 12.5
    endloop
  endfacet
  facet normal 0 0 -1
    outer loop
      vertex 0.5 19 12.5
      vertex 0 20 12.5
      vertex 16 20 12.5
    endloop
  endfacet
  facet normal 0 0 -1
    outer loop
      vertex 16.5 19 12.5
      vertex 17 20 12.5
      vertex 17 19 12.5
    endloop
  endfacet
  facet normal -0 0 -1
    outer loop
      vertex 17 20 12.5
      vertex 16.5 19 12.5
      vertex 16.5 20 12.5
    endloop
  endfacet
  facet normal -1 0 0
    outer loop
      vertex 0 0 20.5
      vertex 0 12 22
      vertex 0 12 20.5
    endloop
  endfacet
  facet normal -1 -0 0
    outer loop
      vertex 0 12 22
      vertex 0 0 20.5
      vertex 0 0 22
    endloop
  endfacet
  facet normal 1 -0 0
    outer loop
      vertex 0.5 0 22
      vertex 0.5 12 20.5
      vertex 0.5 12 22
    endloop
  endfacet
  facet normal 1 0 0
    outer loop
      vertex 0.5 12 20.5
      vertex 0.5 0 22
      vertex 0.5 0 20.5
    endloop
  endfacet
  facet normal 0 1 -0
    outer loop
      vertex 0.5 12 20.5
      vertex 0 12 22
      vertex 0.5 12 22
    endloop
  endfacet
  facet normal 0 1 0
    outer loop
      vertex 0 12 22
      vertex 0.5 12 20.5
      vertex 0 12 20.5
    endloop
  endfacet
  facet normal 0 -1 0
    outer loop
      vertex 0 0 20.5
      vertex 0.5 0 22
      vertex 0 0 22
    endloop
  endfacet
  facet normal 0 -1 -0
    outer loop
      vertex 0.5 0 22
      vertex 0 0 20.5
      vertex 0.5 0 20.5
    endloop
  endfacet
  facet normal -1 0 0
    outer loop
      vertex 10 0 20.5
      vertex 10 12 22
      vertex 10 12 20.5
    endloop
  endfacet
  facet normal -1 -0 0
    outer loop
      vertex 10 12 22
      vertex 10 0 20.5
      vertex 10 0 22
    endloop
  endfacet
  facet normal 0 0 -1
    outer loop
      vertex 12 -2 22
      vertex 10.5 0 22
      vertex 12 13 22
    endloop
  endfacet
  facet normal 0 0 -1
    outer loop
      vertex 12 -2 22
      vertex 10 0 22
      vertex 10.5 0 22
    endloop
  endfacet
  facet normal 0 0 -1
    outer loop
      vertex 10 0 22
      vertex 0.5 0 22
      vertex 10 12 22
    endloop
  endfacet
  facet normal 0 0 -1
    outer loop
      vertex 12 -2 22
      vertex 0.5 0 22
      vertex 10 0 22
    endloop
  endfacet
  facet normal 0 0 -1
    outer loop
      vertex -2 -2 22
      vertex 0.5 0 22
      vertex 12 -2 22
    endloop
  endfacet
  facet normal 0 0 -1
    outer loop
      vertex -2 13 22
      vertex 0 0 22
      vertex -2 -2 22
    endloop
  endfacet
  facet normal -0 0 -1
    outer loop
      vertex 0.5 0 22
      vertex -2 -2 22
      vertex 0 0 22
    endloop
  endfacet
  facet normal 0 0 -1
    outer loop
      vertex 10.5 12 22
      vertex 12 13 22
      vertex 10.5 0 22
    endloop
  endfacet
  facet normal 0 0 -1
    outer loop
      vertex 10 12 22
      vertex 12 13 22
      vertex 10.5 12 22
    endloop
  endfacet
  facet normal 0 0 -1
    outer loop
      vertex 0.5 12 22
      vertex 10 12 22
      vertex 0.5 0 22
    endloop
  endfacet
  facet normal 0 0 -1
    outer loop
      vertex 0.5 12 22
      vertex 12 13 22
      vertex 10 12 22
    endloop
  endfacet
  facet normal 0 0 -1
    outer loop
      vertex -2 13 22
      vertex 0.5 12 22
      vertex 0 12 22
    endloop
  endfacet
  facet normal 0 0 -1
    outer loop
      vertex 0.5 12 22
      vertex -2 13 22
      vertex 12 13 22
    endloop
  endfacet
  facet normal 0 0 -1
    outer loop
      vertex 0 0 22
      vertex -2 13 22
      vertex 0 12 22
    endloop
  endfacet
  facet normal 1 -0 0
    outer loop
      vertex 10.5 0 22
      vertex 10.5 12 20.5
      vertex 10.5 12 22
    endloop
  endfacet
  facet normal 1 0 0
    outer loop
      vertex 10.5 12 20.5
      vertex 10.5 0 22
      vertex 10.5 0 20.5
    endloop
  endfacet
  facet normal 0 1 -0
    outer loop
      vertex 10.5 12 20.5
      vertex 10 12 22
      vertex 10.5 12 22
    endloop
  endfacet
  facet normal 0 1 0
    outer loop
      vertex 10 12 22
      vertex 10.5 12 20.5
      vertex 10 12 20.5
    endloop
  endfacet
  facet normal 0 -1 0
    outer loop
      vertex 10 0 20.5
      vertex 10.5 0 22
      vertex 10 0 22
    endloop
  endfacet
  facet normal 0 -1 -0
    outer loop
      vertex 10.5 0 22
      vertex 10 0 20.5
      vertex 10.5 0 20.5
    endloop
  endfacet
  facet normal -1 0 0
    outer loop
      vertex -2 -2 22
      vertex -2 13 22.5
      vertex -2 13 22
    endloop
  endfacet
  facet normal -1 -0 0
    outer loop
      vertex -2 13 22.5
      vertex -2 -2 22
      vertex -2 -2 22.5
    endloop
  endfacet
  facet normal -0 0 1
    outer loop
      vertex -2 13 22.5
      vertex 12 -2 22.5
      vertex 12 13 22.5
    endloop
  endfacet
  facet normal 0 0 1
    outer loop
      vertex 12 -2 22.5
      vertex -2 13 22.5
      vertex -2 -2 22.5
    endloop
  endfacet
  facet normal 1 -0 0
    outer loop
      vertex 12 -2 22.5
      vertex 12 13 22
      vertex 12 13 22.5
    endloop
  endfacet
  facet normal 1 0 0
    outer loop
      vertex 12 13 22
      vertex 12 -2 22.5
      vertex 12 -2 22
    endloop
  endfacet
  facet normal 0 -1 0
    outer loop
      vertex -2 -2 22
      vertex 12 -2 22.5
      vertex -2 -2 22.5
    endloop
  endfacet
  facet normal 0 -1 -0
    outer loop
      vertex 12 -2 22.5
      vertex -2 -2 22
      vertex 12 -2 22
    endloop
  endfacet
  facet normal 0 1 -0
    outer loop
      vertex 12 13 22
      vertex -2 13 22.5
      vertex 12 13 22.5
    endloop
  endfacet
  facet normal 0 1 0
    outer loop
      vertex -2 13 22.5
      vertex 12 13 22
      vertex -2 13 22
    endloop
  endfacet
endsolid OpenSCAD_Model
